# This file uses centimeters as units for non-parametric coordinates.

mtllib horse_tail.mtl
g default
v -0.023275 -0.149263 0.014183
v -0.037990 -0.126246 0.014183
v -0.048988 -0.090871 0.014183
v -0.055190 -0.046601 0.014183
v -0.055989 0.002230 0.014183
v -0.051308 0.050844 0.014183
v -0.041604 0.094480 0.014183
v -0.027827 0.128868 0.014183
v -0.011328 0.150641 0.014183
v 0.006281 0.157669 0.014183
v 0.023275 0.149263 0.014183
v 0.037990 0.126246 0.014183
v 0.048988 0.090871 0.014183
v 0.055190 0.046601 0.014183
v 0.055989 -0.002230 0.014183
v 0.051308 -0.050844 0.014183
v 0.041604 -0.094480 0.014183
v 0.027827 -0.128868 0.014183
v 0.011328 -0.150641 0.014183
v -0.006281 -0.157669 0.014183
v 0.080307 0.515009 3.345237
v 0.131081 0.435593 3.345237
v 0.021672 0.544013 3.345237
v 0.169024 0.313536 3.345237
v -0.039085 0.519766 3.345237
v 0.190422 0.160791 3.345237
v -0.096015 0.444639 3.345237
v 0.193180 -0.007696 3.345237
v -0.143548 0.325988 3.345237
v 0.177028 -0.175429 3.345237
v -0.177028 0.175429 3.345237
v 0.143548 -0.325989 3.345237
v -0.193180 0.007696 3.345237
v 0.096016 -0.444639 3.345237
v -0.190422 -0.160791 3.345237
v 0.039085 -0.519766 3.345237
v -0.169024 -0.313537 3.345237
v -0.021672 -0.544013 3.345237
v -0.131082 -0.435593 3.345237
v -0.080307 -0.515010 3.345237
vt 0.500000 0.914448
vt 0.504329 0.912518
vt 0.495671 0.912518
vt 0.491766 0.906915
vt 0.508234 0.906914
vt 0.488667 0.898187
vt 0.511333 0.898187
vt 0.486677 0.887190
vt 0.513323 0.887190
vt 0.485992 0.875000
vt 0.514008 0.875000
vt 0.486677 0.862810
vt 0.513323 0.862810
vt 0.488667 0.851813
vt 0.511333 0.851813
vt 0.491766 0.843085
vt 0.508234 0.843085
vt 0.495671 0.837482
vt 0.504329 0.837482
vt 0.500000 0.835552
vt 0.625000 0.500000
vt 0.650000 0.500000
vt 0.536228 0.855087
vt 0.543474 0.855087
vt 0.600000 0.500000
vt 0.528983 0.855087
vt 0.675000 0.500000
vt 0.550719 0.855087
vt 0.521737 0.855087
vt 0.575000 0.500000
vt 0.700000 0.500000
vt 0.557965 0.855087
vt 0.514491 0.855087
vt 0.550000 0.500000
vt 0.725000 0.500000
vt 0.565211 0.855087
vt 0.507246 0.855087
vt 0.525000 0.500000
vt 0.572456 0.855087
vt 0.750000 0.500000
vt 0.500000 0.855087
vt 0.500000 0.500000
vt 0.427544 0.855087
vt 0.250000 0.500000
vt 0.434789 0.855087
vt 0.275000 0.500000
vt 0.492754 0.855087
vt 0.475000 0.500000
vt 0.442035 0.855087
vt 0.300000 0.500000
vt 0.450000 0.500000
vt 0.485509 0.855087
vt 0.449281 0.855087
vt 0.325000 0.500000
vt 0.425000 0.500000
vt 0.478263 0.855087
vt 0.456526 0.855087
vt 0.350000 0.500000
vt 0.400000 0.500000
vt 0.471017 0.855087
vt 0.375000 0.500000
vt 0.463772 0.855087
vt 0.500000 0.500000
vt 0.422746 0.487764
vt 0.577254 0.487764
vt 0.646946 0.452254
vt 0.353054 0.452254
vt 0.702254 0.396946
vt 0.297746 0.396946
vt 0.737764 0.327254
vt 0.262236 0.327254
vt 0.750000 0.250000
vt 0.250000 0.250000
vt 0.737764 0.172746
vt 0.262236 0.172746
vt 0.702254 0.103054
vt 0.297746 0.103054
vt 0.353054 0.047746
vt 0.646946 0.047746
vt 0.422746 0.012236
vt 0.577254 0.012236
vt 0.500000 -0.000000
vn 0.000000 0.000000 -1.000000
vn 0.000000 0.000004 -1.000000
vn -0.000000 -0.000002 -1.000000
vn -0.000000 -0.000002 -1.000000
vn 0.000000 0.000004 -1.000000
vn 0.000000 0.000000 -1.000000
vn 0.000000 0.000004 -1.000000
vn -0.000000 -0.000002 -1.000000
vn 0.000000 0.000000 -1.000000
vn 0.000000 0.000000 -1.000000
vn -0.000000 -0.000002 -1.000000
vn 0.000000 0.000003 -1.000000
vn -0.000000 -0.000002 -1.000000
vn -0.000000 -0.000002 -1.000000
vn 0.000000 0.000003 -1.000000
vn 0.000000 0.000003 -1.000000
vn -0.000000 -0.000002 -1.000000
vn 0.000000 0.000004 -1.000000
vn -0.000000 -0.000002 -1.000000
vn -0.000000 -0.000002 -1.000000
vn 0.000000 0.000004 -1.000000
vn 0.000000 0.000004 -1.000000
vn -0.000000 -0.000002 -1.000000
vn 0.000000 0.000003 -1.000000
vn -0.000000 -0.000002 -1.000000
vn -0.000000 -0.000002 -1.000000
vn 0.000000 0.000003 -1.000000
vn 0.000000 0.000003 -1.000000
vn -0.000000 -0.000002 -1.000000
vn 0.000000 0.000002 -1.000000
vn -0.000000 -0.000002 -1.000000
vn -0.000000 -0.000002 -1.000000
vn 0.000000 0.000002 -1.000000
vn 0.000000 0.000002 -1.000000
vn -0.000000 -0.000002 -1.000000
vn 0.000000 0.000003 -1.000000
vn -0.000000 -0.000002 -1.000000
vn -0.000000 -0.000003 -1.000000
vn 0.000000 0.000003 -1.000000
vn 0.000000 0.000003 -1.000000
vn -0.000000 -0.000003 -1.000000
vn 0.000000 0.000005 -1.000000
vn -0.000000 -0.000003 -1.000000
vn -0.000000 -0.000004 -1.000000
vn 0.000000 0.000005 -1.000000
vn 0.000000 0.000005 -1.000000
vn -0.000000 -0.000004 -1.000000
vn 0.000000 0.000004 -1.000000
vn -0.000000 -0.000004 -1.000000
vn 0.000000 0.000009 -1.000000
vn 0.000000 0.000004 -1.000000
vn 0.000000 0.000004 -1.000000
vn 0.000000 0.000009 -1.000000
vn 0.000000 0.000000 -1.000000
vn 0.840253 0.537208 -0.073371
vn 0.911006 0.407506 -0.063303
vn 0.840254 0.537207 -0.073371
vn 0.840254 0.537207 -0.073371
vn 0.911006 0.407506 -0.063303
vn 0.917188 0.393572 -0.062182
vn 0.440903 0.891342 -0.105417
vn 0.440904 0.891342 -0.105417
vn 0.440902 0.891343 -0.105417
vn 0.440902 0.891343 -0.105417
vn 0.440904 0.891342 -0.105417
vn 0.440902 0.891343 -0.105417
vn 0.911006 0.407506 -0.063303
vn 0.975692 0.213498 -0.049431
vn 0.917188 0.393572 -0.062182
vn 0.917188 0.393572 -0.062182
vn 0.975692 0.213498 -0.049431
vn 0.977458 0.205377 -0.048952
vn -0.368601 0.923591 -0.105417
vn -0.368602 0.923591 -0.105417
vn -0.368601 0.923591 -0.105417
vn -0.368601 0.923591 -0.105417
vn -0.368602 0.923591 -0.105417
vn -0.368603 0.923590 -0.105417
vn 0.975692 0.213498 -0.049431
vn 0.996183 0.075940 -0.043046
vn 0.977458 0.205377 -0.048952
vn 0.977458 0.205377 -0.048952
vn 0.996183 0.075940 -0.043046
vn 0.996521 0.071454 -0.042906
vn -0.882974 0.465286 -0.062182
vn -0.875703 0.478683 -0.063303
vn -0.794857 0.602345 -0.073371
vn -0.794857 0.602345 -0.073371
vn -0.875703 0.478683 -0.063303
vn -0.794857 0.602345 -0.073371
vn 0.996183 0.075940 -0.043046
vn 0.998360 -0.039771 -0.041183
vn 0.996521 0.071454 -0.042906
vn 0.996521 0.071454 -0.042906
vn 0.998360 -0.039771 -0.041183
vn 0.998360 -0.039771 -0.041183
vn -0.958023 0.282480 -0.048952
vn -0.955617 0.290435 -0.049431
vn -0.882974 0.465286 -0.062182
vn -0.882974 0.465286 -0.062182
vn -0.955617 0.290435 -0.049431
vn -0.875703 0.478683 -0.063303
vn 0.998360 -0.039771 -0.041183
vn 0.998360 -0.039771 -0.041183
vn 0.987679 -0.150498 -0.042906
vn 0.987679 -0.150498 -0.042906
vn 0.998360 -0.039771 -0.041183
vn 0.986985 -0.154943 -0.043046
vn -0.987679 0.150498 -0.042906
vn -0.986985 0.154943 -0.043046
vn -0.958023 0.282480 -0.048952
vn -0.958023 0.282480 -0.048952
vn -0.986985 0.154943 -0.043046
vn -0.955617 0.290435 -0.049431
vn 0.987679 -0.150498 -0.042906
vn 0.986985 -0.154943 -0.043046
vn 0.958023 -0.282480 -0.048952
vn 0.958023 -0.282480 -0.048952
vn 0.986985 -0.154943 -0.043046
vn 0.955617 -0.290435 -0.049431
vn -0.998360 0.039771 -0.041183
vn -0.998360 0.039771 -0.041183
vn -0.987679 0.150498 -0.042906
vn -0.987679 0.150498 -0.042906
vn -0.998360 0.039771 -0.041183
vn -0.986985 0.154943 -0.043046
vn 0.958023 -0.282480 -0.048952
vn 0.955617 -0.290435 -0.049431
vn 0.882974 -0.465286 -0.062182
vn 0.882974 -0.465286 -0.062182
vn 0.955617 -0.290435 -0.049431
vn 0.875703 -0.478683 -0.063303
vn -0.996183 -0.075940 -0.043046
vn -0.998360 0.039771 -0.041183
vn -0.996521 -0.071454 -0.042906
vn -0.996521 -0.071454 -0.042906
vn -0.998360 0.039771 -0.041183
vn -0.998360 0.039771 -0.041183
vn 0.882974 -0.465286 -0.062182
vn 0.875703 -0.478683 -0.063303
vn 0.794856 -0.602346 -0.073371
vn 0.794856 -0.602346 -0.073371
vn 0.875703 -0.478683 -0.063303
vn 0.794857 -0.602345 -0.073371
vn -0.975692 -0.213498 -0.049431
vn -0.996183 -0.075940 -0.043046
vn -0.977458 -0.205377 -0.048952
vn -0.977458 -0.205377 -0.048952
vn -0.996183 -0.075940 -0.043046
vn -0.996521 -0.071454 -0.042906
vn 0.368601 -0.923591 -0.105417
vn 0.368602 -0.923591 -0.105417
vn 0.368601 -0.923591 -0.105417
vn 0.368601 -0.923591 -0.105417
vn 0.368602 -0.923591 -0.105417
vn 0.368602 -0.923591 -0.105417
vn -0.911006 -0.407506 -0.063303
vn -0.975692 -0.213498 -0.049431
vn -0.917188 -0.393572 -0.062182
vn -0.917188 -0.393572 -0.062182
vn -0.975692 -0.213498 -0.049431
vn -0.977458 -0.205377 -0.048952
vn -0.440903 -0.891342 -0.105417
vn -0.440903 -0.891342 -0.105417
vn -0.440902 -0.891343 -0.105417
vn -0.440902 -0.891343 -0.105417
vn -0.440903 -0.891342 -0.105417
vn -0.440902 -0.891343 -0.105417
vn -0.840253 -0.537208 -0.073371
vn -0.911006 -0.407506 -0.063303
vn -0.840254 -0.537207 -0.073371
vn -0.840254 -0.537207 -0.073371
vn -0.911006 -0.407506 -0.063303
vn -0.917188 -0.393572 -0.062182
vn -0.000000 -0.000009 1.000000
vn -0.000000 -0.000001 1.000000
vn -0.000000 -0.000004 1.000000
vn -0.000000 -0.000004 1.000000
vn -0.000000 -0.000001 1.000000
vn 0.000000 0.000002 1.000000
vn -0.000000 -0.000001 1.000000
vn -0.000000 -0.000000 1.000000
vn 0.000000 0.000002 1.000000
vn 0.000000 0.000002 1.000000
vn -0.000000 -0.000000 1.000000
vn -0.000000 -0.000000 1.000000
vn -0.000000 -0.000000 1.000000
vn -0.000000 -0.000001 1.000000
vn -0.000000 -0.000000 1.000000
vn -0.000000 -0.000000 1.000000
vn -0.000000 -0.000001 1.000000
vn 0.000000 0.000001 1.000000
vn -0.000000 -0.000001 1.000000
vn -0.000000 -0.000001 1.000000
vn 0.000000 0.000001 1.000000
vn 0.000000 0.000001 1.000000
vn -0.000000 -0.000001 1.000000
vn -0.000000 -0.000000 1.000000
vn -0.000000 -0.000001 1.000000
vn -0.000000 -0.000000 1.000000
vn -0.000000 -0.000000 1.000000
vn -0.000000 -0.000000 1.000000
vn -0.000000 -0.000000 1.000000
vn -0.000000 -0.000000 1.000000
vn -0.000000 -0.000000 1.000000
vn 0.000000 0.000001 1.000000
vn -0.000000 -0.000000 1.000000
vn -0.000000 -0.000000 1.000000
vn 0.000000 0.000001 1.000000
vn 0.000000 0.000001 1.000000
vn 0.000000 0.000001 1.000000
vn -0.000000 -0.000000 1.000000
vn 0.000000 0.000001 1.000000
vn -0.000000 -0.000000 1.000000
vn -0.000000 -0.000002 1.000000
vn 0.000000 0.000001 1.000000
vn 0.000000 0.000001 1.000000
vn -0.000000 -0.000002 1.000000
vn 0.000000 0.000003 1.000000
vn -0.000000 -0.000002 1.000000
vn -0.000000 -0.000000 1.000000
vn 0.000000 0.000003 1.000000
vn 0.000000 0.000003 1.000000
vn -0.000000 -0.000000 1.000000
vn -0.000000 -0.000000 1.000000
vn -0.000000 -0.000000 1.000000
vn -0.000000 -0.000000 1.000000
vn -0.000000 -0.000000 1.000000
s off
g horse_tail:pCone2
usemtl horse_tail:initialShadingGroup
f 10/1/1 11/2/2 9/3/3
f 9/3/4 11/2/5 8/4/6
f 11/2/7 12/5/8 8/4/9
f 8/4/10 12/5/11 7/6/12
f 12/5/13 13/7/14 7/6/15
f 7/6/16 13/7/17 6/8/18
f 13/7/19 14/9/20 6/8/21
f 6/8/22 14/9/23 5/10/24
f 14/9/25 15/11/26 5/10/27
f 5/10/28 15/11/29 4/12/30
f 15/11/31 16/13/32 4/12/33
f 4/12/34 16/13/35 3/14/36
f 16/13/37 17/15/38 3/14/39
f 3/14/40 17/15/41 2/16/42
f 17/15/43 18/17/44 2/16/45
f 2/16/46 18/17/47 1/18/48
f 18/17/49 19/19/50 1/18/51
f 1/18/52 19/19/53 20/20/54
f 21/21/55 22/22/56 11/23/57
f 11/23/58 22/22/59 12/24/60
f 23/25/61 21/21/62 10/26/63
f 10/26/64 21/21/65 11/23/66
f 22/22/67 24/27/68 12/24/69
f 12/24/70 24/27/71 13/28/72
f 9/29/73 25/30/74 10/26/75
f 10/26/76 25/30/77 23/25/78
f 24/27/79 26/31/80 13/28/81
f 13/28/82 26/31/83 14/32/84
f 8/33/85 27/34/86 9/29/87
f 9/29/88 27/34/89 25/30/90
f 26/31/91 28/35/92 14/32/93
f 14/32/94 28/35/95 15/36/96
f 7/37/97 29/38/98 8/33/99
f 8/33/100 29/38/101 27/34/102
f 15/36/103 28/35/104 16/39/105
f 16/39/106 28/35/107 30/40/108
f 6/41/109 31/42/110 7/37/111
f 7/37/112 31/42/113 29/38/114
f 16/43/115 30/44/116 17/45/117
f 17/45/118 30/44/119 32/46/120
f 5/47/121 33/48/122 6/41/123
f 6/41/124 33/48/125 31/42/126
f 17/45/127 32/46/128 18/49/129
f 18/49/130 32/46/131 34/50/132
f 35/51/133 33/48/134 4/52/135
f 4/52/136 33/48/137 5/47/138
f 18/49/139 34/50/140 19/53/141
f 19/53/142 34/50/143 36/54/144
f 37/55/145 35/51/146 3/56/147
f 3/56/148 35/51/149 4/52/150
f 19/53/151 36/54/152 20/57/153
f 20/57/154 36/54/155 38/58/156
f 39/59/157 37/55/158 2/60/159
f 2/60/160 37/55/161 3/56/162
f 38/58/163 40/61/164 20/57/165
f 20/57/166 40/61/167 1/62/168
f 40/61/169 39/59/170 1/62/171
f 1/62/172 39/59/173 2/60/174
f 23/63/175 25/64/176 21/65/177
f 21/65/178 25/64/179 22/66/180
f 25/64/181 27/67/182 22/66/183
f 22/66/184 27/67/185 24/68/186
f 27/67/187 29/69/188 24/68/189
f 24/68/190 29/69/191 26/70/192
f 29/69/193 31/71/194 26/70/195
f 26/70/196 31/71/197 28/72/198
f 31/71/199 33/73/200 28/72/201
f 28/72/202 33/73/203 30/74/204
f 33/73/205 35/75/206 30/74/207
f 30/74/208 35/75/209 32/76/210
f 35/75/211 37/77/212 32/76/213
f 37/77/214 39/78/215 32/76/216
f 32/76/217 39/78/218 34/79/219
f 39/78/220 40/80/221 34/79/222
f 34/79/223 40/80/224 36/81/225
f 40/80/226 38/82/227 36/81/228
